<svg viewBox="0 0 234 200" fill="none" xmlns="http://www.w3.org/2000/svg">
<path d="M17.5016 183.538C20.2329 184.498 23.2673 183.964 25.5062 182.128C28.3098 179.775 29.189 175.899 29.904 172.309L32.0195 161.692L27.5905 164.741C24.4053 166.934 21.1485 169.198 18.9432 172.374C16.738 175.551 15.7759 179.887 17.5473 183.325" fill="#E6E6E6"/>
<path d="M18.1855 197.132C17.628 193.071 17.0545 188.957 17.4464 184.852C17.7938 181.207 18.906 177.647 21.1704 174.726C22.3723 173.18 23.8348 171.854 25.4922 170.81C25.9243 170.537 26.322 171.222 25.8918 171.494C23.0241 173.306 20.8059 175.982 19.5572 179.136C18.1781 182.644 17.9567 186.468 18.1942 190.194C18.3378 192.447 18.6429 194.686 18.9493 196.921C18.9995 197.131 18.8786 197.344 18.6727 197.408C18.462 197.465 18.2449 197.342 18.1858 197.132L18.1855 197.132Z" fill="#F2F2F2"/>
<path d="M22.1979 190.615C23.3692 192.396 25.3847 193.437 27.5148 193.36C30.207 193.233 32.4505 191.355 34.47 189.571L40.4443 184.296L36.4904 184.107C33.647 183.97 30.7301 183.843 28.0218 184.721C25.3135 185.598 22.8158 187.708 22.3207 190.511" fill="#E6E6E6"/>
<path d="M16.6097 199.467C19.2935 194.718 22.4062 189.441 27.9685 187.754C29.515 187.286 31.1365 187.119 32.7459 187.261C33.2532 187.304 33.1265 188.086 32.6202 188.043C29.9225 187.819 27.23 188.531 24.996 190.06C22.8462 191.523 21.1723 193.557 19.7557 195.715C18.8878 197.036 18.1105 198.414 17.3332 199.789C17.0848 200.229 16.3585 199.912 16.6097 199.467Z" fill="#F2F2F2"/>
<path d="M231.352 140.846H83.3916C82.4423 140.844 81.6731 140.075 81.6719 139.126V1.71972C81.6731 0.770459 82.4423 0.00124092 83.3916 0H231.352C232.301 0.00124092 233.07 0.770459 233.071 1.71972V139.126C233.07 140.075 232.301 140.844 231.352 140.845V140.846Z" fill="white"/>
<path fill-rule="evenodd" clip-rule="evenodd" d="M83.3916 140.846H231.352V140.845C232.301 140.844 233.07 140.075 233.071 139.126V1.71972C233.07 0.770459 232.301 0.00124092 231.352 0H83.3916C82.4423 0.00124092 81.6731 0.770459 81.6719 1.71972V139.126C81.6731 140.075 82.4423 140.844 83.3916 140.846ZM82.3607 1.71746C82.3619 1.14861 82.8227 0.68777 83.3916 0.686535L231.352 0.688791C231.92 0.690026 232.381 1.15087 232.382 1.71972V139.126C232.381 139.694 231.92 140.155 231.352 140.156H83.3916C82.8227 140.155 82.3619 139.694 82.3607 139.126V1.71746Z" fill="#CACACA"/>
<path d="M153.305 35.7054C152.661 35.7065 152.14 36.2289 152.14 36.873C152.14 37.517 152.661 38.0394 153.305 38.0405H217.37C218.014 38.0394 218.535 37.517 218.535 36.873C218.535 36.2289 218.014 35.7065 217.37 35.7054L153.305 35.7054Z" fill="#E4E4E4"/>
<path d="M153.305 42.7113C152.662 42.7129 152.141 43.2351 152.141 43.8788C152.141 44.5225 152.662 45.0448 153.305 45.0464H186.012C186.655 45.0448 187.176 44.5225 187.176 43.8788C187.176 43.2351 186.655 42.7129 186.012 42.7113L153.305 42.7113Z" fill="#E4E4E4"/>
<path d="M97.3109 80.3861C96.6672 80.3877 96.1462 80.9099 96.1462 81.5536C96.1462 82.1973 96.6672 82.7196 97.3109 82.7212H217.432C218.076 82.7196 218.597 82.1973 218.597 81.5536C218.597 80.9099 218.076 80.3877 217.432 80.3861L97.3109 80.3861Z" fill="#E4E4E4"/>
<path d="M97.3109 87.3918C96.6672 87.3934 96.1462 87.9157 96.1462 88.5594C96.1462 89.2031 96.6672 89.7253 97.3109 89.7269H186.074C186.718 89.7253 187.239 89.2031 187.239 88.5594C187.239 87.9157 186.718 87.3934 186.074 87.3918L97.3109 87.3918Z" fill="#E4E4E4"/>
<path d="M97.3109 94.2393C96.6672 94.2408 96.1462 94.7631 96.1462 95.4068C96.1462 96.0505 96.6672 96.5728 97.3109 96.5743H217.432C218.076 96.5728 218.597 96.0505 218.597 95.4068C218.597 94.7631 218.076 94.2408 217.432 94.2393L97.3109 94.2393Z" fill="#E4E4E4"/>
<path d="M97.3109 101.245C96.6672 101.247 96.1462 101.769 96.1462 102.413C96.1462 103.056 96.6672 103.578 97.3109 103.58H186.074C186.718 103.578 187.239 103.056 187.239 102.413C187.239 101.769 186.718 101.247 186.074 101.245L97.3109 101.245Z" fill="#E4E4E4"/>
<path d="M97.3109 108.275C96.6672 108.276 96.1462 108.798 96.1462 109.442C96.1462 110.086 96.6672 110.608 97.3109 110.61H217.432C218.076 110.608 218.597 110.086 218.597 109.442C218.597 108.798 218.076 108.276 217.432 108.275L97.3109 108.275Z" fill="#E4E4E4"/>
<path d="M97.3109 115.281C96.6672 115.282 96.1462 115.804 96.1462 116.448C96.1462 117.092 96.6672 117.614 97.3109 117.616H186.074C186.718 117.614 187.239 117.092 187.239 116.448C187.239 115.804 186.718 115.282 186.074 115.281L97.3109 115.281Z" fill="#E4E4E4"/>
<path d="M116.337 57.15C109.552 57.1501 103.436 53.0632 100.839 46.7951C98.2431 40.5271 99.6782 33.3122 104.476 28.5148C109.273 23.7174 116.488 22.2822 122.756 24.8785C129.024 27.4748 133.111 33.5913 133.111 40.3758C133.1 49.6355 125.597 57.1394 116.337 57.15Z" fill="#619B2F"/>
<path d="M65.4184 120.574C65.3597 119.335 64.755 118.185 63.767 117.434C62.7791 116.684 61.5094 116.409 60.2995 116.684L54.755 108.871L49.1848 111.082L57.1698 122.007C57.7807 124.053 59.8259 125.32 61.9303 124.954C64.0347 124.589 65.5333 122.707 65.4184 120.574H65.4184Z" fill="#A0616A"/>
<path d="M54.6123 119.995L37.8355 98.2306L44.1217 78.4743C44.5823 73.5074 47.6904 72.1204 47.8227 72.0637L48.0244 71.9772L53.4945 86.5645L49.4782 97.2747L59.3362 113.854L54.6123 119.995Z" fill="#3F3D56"/>
<path d="M112.875 52.9023C111.644 53.0567 110.545 53.7484 109.873 54.7915C109.201 55.8345 109.025 57.1216 109.393 58.3066L102.031 64.4386L104.667 69.8211L114.941 61.0155C116.935 60.2482 118.039 58.1112 117.512 56.0413C116.985 53.9714 114.993 52.6228 112.875 52.9023Z" fill="#A0616A"/>
<path d="M113.134 63.7207L92.7313 82.1301L72.5482 77.3903C67.5604 77.315 65.9373 74.3234 65.8706 74.1959L65.7687 74.0015L79.8894 67.42L90.8781 70.5962L106.646 59.4858L113.134 63.7207Z" fill="#3F3D56"/>
<path d="M77.7938 194.593L83.2755 194.593L85.883 173.449L77.7927 173.449L77.7938 194.593Z" fill="#A0616A"/>
<path d="M93.8474 199.682L76.6192 199.683L76.6189 193.027L89.0136 193.026C91.6831 193.026 93.8471 195.19 93.8473 197.859L93.8474 199.682L93.8474 199.682Z" fill="#2F2E41"/>
<path d="M55.8843 194.593L61.366 194.593L63.9739 173.449L55.8836 173.449L55.8843 194.593Z" fill="#A0616A"/>
<path d="M71.9381 199.682L54.71 199.683L54.7097 193.027L67.1044 193.026C68.3863 193.026 69.6157 193.535 70.5222 194.442C71.4287 195.348 71.938 196.577 71.938 197.859L71.9381 199.682L71.9381 199.682Z" fill="#2F2E41"/>
<path d="M53.9347 117.416L54.3818 148.715L54.8292 189.851L64.6657 188.956L69.5843 132.171L75.8442 188.956H85.9994L87.0223 131.724L83.4453 119.205L53.9347 117.416Z" fill="#2F2E41"/>
<path d="M73.1879 121.619C62.4848 121.62 52.6328 116.776 52.4998 116.709L52.3893 116.654L51.4911 95.0988C51.2307 94.3371 46.1019 79.3068 45.2333 74.5295C44.3533 69.6893 57.1082 65.4415 58.6571 64.9447L59.0086 61.0511L73.3021 59.5109L75.1137 64.493L80.2416 66.4158C81.4449 66.8673 82.1202 68.1475 81.8136 69.3955L78.9636 80.9855L85.9243 119.331L84.4257 119.396C80.8337 121.018 76.9569 121.619 73.1879 121.619Z" fill="#3F3D56"/>
<circle cx="66.7148" cy="46.7534" r="10.2914" transform="rotate(-28.6633 66.7148 46.7534)" fill="#A0616A"/>
<path d="M58.3795 56.7163C60.3408 58.8055 63.9832 57.684 64.2387 54.8298C64.2588 54.6082 64.2573 54.3852 64.2344 54.1639C64.1025 52.8997 63.3721 51.7519 63.547 50.417C63.5866 50.0847 63.7104 49.7681 63.9066 49.4971C65.4695 47.4043 69.1383 50.4332 70.6133 48.5386C71.5178 47.3769 70.4546 45.5478 71.1487 44.2494C72.0647 42.5357 74.778 43.381 76.4795 42.4425C78.3726 41.3983 78.2594 38.4937 77.0132 36.7269C75.4934 34.5723 72.8288 33.4226 70.1973 33.2569C67.5658 33.0913 64.9525 33.8026 62.4957 34.76C59.7044 35.8478 56.9364 37.3512 55.2187 39.8056C53.1297 42.7904 52.9287 46.8033 53.9734 50.2935C54.609 52.4166 56.7779 55.0102 58.3795 56.7163Z" fill="#2F2E41"/>
<path d="M130.77 199.947H0.34233C0.153266 199.947 0 199.794 0 199.605C0 199.416 0.153266 199.263 0.34233 199.263H130.77C130.959 199.263 131.112 199.416 131.112 199.605C131.112 199.794 130.959 199.947 130.77 199.947Z" fill="#CACACA"/>
<path d="M115.368 46.7114C115.066 46.7118 114.774 46.5973 114.553 46.3912L109.022 41.2537C108.538 40.8032 108.51 40.0458 108.96 39.5613C109.41 39.0768 110.168 39.0484 110.653 39.4979L115.338 43.8496L124.607 34.5806C124.909 34.276 125.351 34.1563 125.766 34.2669C126.181 34.3775 126.505 34.7014 126.615 35.1161C126.725 35.5308 126.606 35.973 126.301 36.2752L116.216 46.3606C115.991 46.5855 115.686 46.7118 115.368 46.7114Z" fill="white"/>
</svg>
