<svg xmlns="http://www.w3.org/2000/svg" viewBox="0 0 22 20">
<g clip-path="url(#clip0_613_11)">
<path fill-rule="evenodd" clip-rule="evenodd" d="M21.1737 9.9971C21.1737 11.2893 20.932 12.5425 20.456 13.7254C18.9254 17.5365 15.2824 20 11.1741 20C8.92502 20 6.79928 19.2699 5.027 17.8883L5.02618 17.8867C4.04277 17.2584 3.97407 16.2435 4.32753 15.5614L4.32846 15.5598C4.35502 15.5133 4.91704 14.5282 6.11471 14.7858C6.12547 14.7883 6.13457 14.7916 6.14368 14.7974C6.16106 14.8073 6.58158 15.0482 7.16019 15.477C8.3315 16.3371 9.71969 16.7915 11.1741 16.7915C13.5134 16.7915 15.659 15.6095 16.9139 13.6311C17.6035 12.545 17.9677 11.2884 17.9677 9.9971C17.9677 8.71322 17.6068 7.46244 16.9239 6.38136C15.6689 4.39469 13.52 3.20765 11.1741 3.20765C8.71559 3.20765 6.53356 4.50644 5.33742 6.52705H1.80694C3.23569 2.69442 6.94745 0 11.1741 0C14.7865 0 18.1308 1.95853 19.9014 5.11237C20.7341 6.59161 21.1737 8.28111 21.1737 9.9971ZM15.1143 11.007C15.0622 9.69745 13.9472 9.22892 13.3644 9.1627C13.3338 9.15939 13.3032 9.15773 13.2725 9.15773H12.232V7.57502H13.0407C13.3354 7.59488 13.4414 7.76541 13.4786 7.90613C13.5738 8.34485 14.0043 8.62795 14.4463 8.54269C14.895 8.45578 15.188 8.02036 15.1003 7.57171C14.9968 7.04027 14.4571 6.01217 13.097 5.92111L12.232 5.92194V5.39216C12.232 4.9344 11.862 4.56438 11.4042 4.56438C10.9465 4.56438 10.5764 4.9344 10.5764 5.39216V5.92277L9.50612 5.9236C8.93992 5.96498 7.8307 6.37474 7.68004 7.63131C7.6759 7.66442 7.67424 7.6967 7.67424 7.72981L7.67507 8.96155C7.71067 9.67013 8.233 10.7479 9.56572 10.8125H10.5764V12.3952H9.4606C9.4606 12.3952 9.35795 12.3637 9.32236 12.0997C9.2611 11.6469 8.85632 11.3315 8.3911 11.3903C7.93831 11.4515 7.62044 11.8679 7.68169 12.3215C7.86712 13.6898 8.92668 14.0516 9.4606 14.0516H10.5764V14.6078C10.5764 15.0656 10.9465 15.4356 11.4042 15.4356C11.862 15.4356 12.232 15.0656 12.232 14.6078V14.0516H13.4629C13.5333 14.0516 13.6028 14.0425 13.6707 14.0251C14.8817 13.7122 15.1441 12.5922 15.1152 12.0889L15.1143 11.007ZM10.5764 9.15856H9.60711C9.51937 9.15442 9.35547 9.14614 9.32981 8.92099V7.79521C9.35878 7.66938 9.45728 7.59488 9.56572 7.57667L10.5764 7.57585V9.15856ZM12.232 12.3968H13.3247C13.4596 12.3256 13.4637 12.1824 13.4621 12.1344L13.4604 11.0393C13.4538 10.8812 13.2982 10.8299 13.2146 10.8141H12.232V12.3968ZM4.06264 13.5143L6.95904 9.17595C7.10308 8.95907 7.11632 8.68093 6.99381 8.45164C6.8713 8.22234 6.63124 8.07914 6.37132 8.07914H0.705991C0.449379 8.07914 0.210978 8.21986 0.0868108 8.44501C-0.0373562 8.671 -0.0274229 8.94665 0.110817 9.16436L2.8814 13.5019C3.00888 13.7039 3.23072 13.8256 3.46912 13.8281H3.47574C3.71166 13.8281 3.93268 13.7105 4.06264 13.5143Z"/>
</g>
</svg>
