<svg viewBox="0 0 30 30" xmlns="http://www.w3.org/2000/svg">
<path d="M25.5041 14.6789C27.933 14.6789 29.8949 12.717 29.8949 10.288V9.77423C29.8949 9.58739 29.7548 9.40055 29.5212 9.40055H29.0074C27.4659 9.40055 26.1113 10.1946 25.3172 11.4091V9.91436L25.5508 9.68081C27.2791 7.99922 27.2791 5.19657 25.5508 3.51499L25.1771 3.1413C25.037 3.00117 24.8034 3.00117 24.6633 3.1413L24.2896 3.51499C23.4488 4.35578 23.0284 5.43013 23.0284 6.5979C23.0284 7.76567 23.4955 8.84002 24.2896 9.68081L24.5232 9.91436V11.4091C23.7291 10.1946 22.3745 9.40055 20.833 9.40055H20.3192C20.1323 9.40055 19.9455 9.54068 19.9455 9.77423V10.3348C19.9455 12.7637 21.9074 14.7256 24.3363 14.7256H24.4764V16.6874C23.6824 15.4729 22.3278 14.6789 20.7863 14.6789H20.2725C20.0856 14.6789 19.8988 14.819 19.8988 15.0525V15.4729C19.8988 17.9019 21.8606 19.8638 24.2896 19.8638H24.4297V21.8256C23.6357 20.6111 22.281 19.817 20.7396 19.817H20.2258C20.0389 19.817 19.8521 19.9572 19.8521 20.1907V20.7046C19.8521 23.1335 21.8139 25.0954 24.2429 25.0954H24.383V27.1039C21.2534 25.9829 18.1238 25.4223 14.9942 25.3756V22.1059H15.1343C17.5633 22.1059 19.5251 20.144 19.5251 17.7151V17.2012C19.5251 17.0144 19.385 16.8276 19.1514 16.8276H18.6376C17.0961 16.8276 15.7415 17.6216 14.9475 18.8361V16.8743H15.0876C17.5165 16.8743 19.4784 14.9124 19.4784 12.4835V11.9696C19.4784 11.7828 19.3383 11.596 19.1047 11.596H18.5909C17.0494 11.596 15.6948 12.39 14.9007 13.6045V11.6427H15.0409C17.4698 11.6427 19.4317 9.68081 19.4317 7.25185V6.73803C19.4317 6.55119 19.2916 6.36434 19.058 6.36434H18.5442C17.0027 6.36434 15.6481 7.15843 14.854 8.37291V6.87816L15.0876 6.64461C16.8159 4.96302 16.8159 2.16037 15.0876 0.478786L14.7139 0.105099C14.5738 -0.0350331 14.3402 -0.0350331 14.2001 0.105099L14.3402 0.525496C12.6119 2.2538 12.6119 5.00973 14.3402 6.69132L14.5738 6.92487V8.46633C13.7797 7.25185 12.4251 6.45777 10.8836 6.45777H10.3698C10.183 6.45777 9.99611 6.5979 9.99611 6.83145V7.34527C9.99611 9.77423 11.958 11.7361 14.3869 11.7361H14.5271V13.6979C13.733 12.4835 12.3784 11.6894 10.8369 11.6894H10.3231C10.1362 11.6894 9.9494 11.8295 9.9494 12.0631V12.5769C9.9494 15.0058 11.9112 16.9677 14.3402 16.9677H14.4803V18.9295C13.6863 17.7151 12.3316 16.921 10.7902 16.921H10.2764C10.0895 16.921 9.90269 17.0611 9.90269 17.2947V17.8085C9.90269 20.2374 11.8645 22.1993 14.2935 22.1993H14.4336V25.4691C11.304 25.5158 8.17439 26.0763 5.04476 27.1506V25.1421H5.1849C7.61386 25.1421 9.57571 23.1802 9.57571 20.7513V20.2374C9.57571 20.0506 9.43558 19.8638 9.20202 19.8638H8.68821C7.14675 19.8638 5.79214 20.6578 4.99805 21.8723V19.9105H5.13819C7.56715 19.9105 9.529 17.9486 9.529 15.5197V15.0058C9.529 14.819 9.38887 14.6322 9.15531 14.6322H8.64149C7.10004 14.6322 5.74543 15.4262 4.95134 16.6407V14.6789H5.09148C7.52044 14.6789 9.48229 12.717 9.48229 10.288V9.77423C9.48229 9.58739 9.34216 9.40055 9.1086 9.40055H8.59478C7.05333 9.40055 5.69872 10.1946 4.90463 11.4091V9.91436L5.13819 9.68081C6.86648 7.99922 6.86648 5.19657 5.13819 3.51499V3.1413C4.99805 3.00117 4.7645 3.00117 4.62437 3.1413L4.25068 3.51499C3.40989 4.35578 2.98949 5.43013 2.98949 6.5979C2.98949 7.76567 3.4566 8.84002 4.25068 9.68081L4.48424 9.91436V11.4091C3.69015 10.1946 2.33554 9.40055 0.794083 9.40055H0.373686C0.186843 9.40055 0 9.54068 0 9.77423V10.3348C0 12.7637 1.96185 14.7256 4.39081 14.7256H4.53095V16.6874C3.73686 15.4729 2.38225 14.6789 0.840794 14.6789H0.373686C0.140132 14.6322 0 14.7723 0 15.0058V15.4729C0 17.9019 1.96185 19.8638 4.39081 19.8638H4.53095V21.8256C3.73686 20.6111 2.38225 19.817 0.840794 19.817H0.373686C0.186843 19.817 0 19.9572 0 20.1907V20.7046C0 23.1335 1.96185 25.0954 4.39081 25.0954H4.53095V27.3375C3.08291 27.898 1.63488 28.552 0.186843 29.346C0 29.4395 -0.0467108 29.673 0.0467108 29.8132C0.140132 30 0.373686 30.0467 0.513819 29.9533C9.99611 24.7684 19.6652 24.7684 29.3811 29.9533H29.5679C29.7081 29.9533 29.8015 29.9066 29.8949 29.7664C29.9883 29.5796 29.9416 29.3928 29.7548 29.2993C28.3067 28.5053 26.8587 27.8513 25.4107 27.3375V25.0487H25.5508C27.9798 25.0487 29.9416 23.0868 29.9416 20.6578V20.144C29.9416 19.9572 29.8015 19.7703 29.5679 19.7703H29.0541C27.5126 19.7703 26.158 20.5644 25.364 21.7789V19.817H25.5041C27.933 19.817 29.8949 17.8552 29.8949 15.4262V15.0058C29.8949 14.819 29.7548 14.6322 29.5212 14.6322H29.0074C27.4659 14.6322 26.1113 15.4262 25.3172 16.6407V14.6789H25.5041Z"/>
</svg>
