<svg viewBox="0 0 20 20" xmlns="http://www.w3.org/2000/svg">
<path d="M7.06517 11.0339C7.06517 10.7834 6.86195 10.5804 6.61121 10.5804H5.02707C4.77662 10.5804 4.57336 10.7834 4.57336 11.0339V12.6178C4.57336 12.8687 4.77662 13.0717 5.02707 13.0717H6.61121C6.86195 13.0717 7.06517 12.8687 7.06517 12.6178V11.0339V11.0339Z"/>
<path d="M11.0238 11.0339C11.0238 10.7834 10.8205 10.5804 10.5703 10.5804H8.98594C8.73548 10.5804 8.53223 10.7834 8.53223 11.0339V12.6178C8.53223 12.8687 8.73548 13.0717 8.98594 13.0717H10.5703C10.8205 13.0717 11.0238 12.8687 11.0238 12.6178V11.0339Z"/>
<path d="M14.9833 11.0339C14.9833 10.7834 14.78 10.5804 14.5295 10.5804H12.9454C12.6947 10.5804 12.4915 10.7834 12.4915 11.0339V12.6178C12.4915 12.8687 12.6947 13.0717 12.9454 13.0717H14.5295C14.78 13.0717 14.9833 12.8687 14.9833 12.6178V11.0339Z"/>
<path d="M7.06517 14.9932C7.06517 14.7423 6.86195 14.5395 6.61121 14.5395H5.02707C4.77662 14.5395 4.57336 14.7423 4.57336 14.9932V16.5769C4.57336 16.8276 4.77662 17.0306 5.02707 17.0306H6.61121C6.86195 17.0306 7.06517 16.8275 7.06517 16.5769V14.9932V14.9932Z"/>
<path d="M11.0238 14.9932C11.0238 14.7423 10.8205 14.5395 10.5703 14.5395H8.98594C8.73548 14.5395 8.53223 14.7423 8.53223 14.9932V16.5769C8.53223 16.8276 8.73548 17.0306 8.98594 17.0306H10.5703C10.8205 17.0306 11.0238 16.8275 11.0238 16.5769V14.9932Z"/>
<path d="M14.9833 14.9932C14.9833 14.7423 14.78 14.5395 14.5298 14.5395H12.9454C12.6947 14.5395 12.4915 14.7423 12.4915 14.9932V16.5769C12.4915 16.8276 12.6947 17.0306 12.9454 17.0306H14.5298C14.78 17.0306 14.9833 16.8275 14.9833 16.5769V14.9932V14.9932Z"/>
<path fill-rule="evenodd" clip-rule="evenodd" d="M17.8158 4.64627V2.22695C18.7714 2.25575 19.5566 3.04644 19.5566 4.01831V18.1967C19.5566 19.1852 18.7526 20 17.7639 20H1.79268C0.802535 20 0 19.1868 0 18.1967V4.01831C0 3.04644 0.785205 2.25575 1.74077 2.22695V4.64627C1.74077 5.73978 2.62782 6.62098 3.72113 6.62098H4.9707C6.06396 6.62098 6.96278 5.73978 6.96278 4.64627V2.21826H12.5938V4.64627C12.5938 5.73978 13.4927 6.62098 14.5861 6.62098H15.8354C16.9288 6.62098 17.8158 5.73978 17.8158 4.64627ZM16.4608 18.0888C16.8889 18.0888 17.2358 17.7417 17.2358 17.3138L17.2358 9.99014C17.2358 9.56208 16.8888 9.21494 16.4608 9.21494H3.06211C2.63401 9.21494 2.28711 9.56208 2.28711 9.99014V17.3138C2.28711 17.7417 2.63405 18.0888 3.06211 18.0888H16.4608Z"/>
<path d="M3.71632 5.32395H4.95208C5.32717 5.32395 5.6313 5.02027 5.6313 4.64518V0.679008C5.6313 0.30388 5.32717 0 4.95208 0H3.71632C3.34119 0 3.03711 0.30388 3.03711 0.679008V4.64518C3.03711 5.02027 3.34119 5.32395 3.71632 5.32395Z"/>
<path d="M14.5698 5.32395H15.8056C16.1804 5.32395 16.4845 5.02027 16.4845 4.64518V0.679008C16.4846 0.30388 16.1804 0 15.8056 0H14.5698C14.1948 0 13.8906 0.30388 13.8906 0.679008V4.64518C13.8906 5.02027 14.1948 5.32395 14.5698 5.32395Z"/>
</svg>
