<svg viewBox="0 0 17 16" xmlns="http://www.w3.org/2000/svg">
<path d="M8.5 10.6666C9.60457 10.6666 10.5 9.7712 10.5 8.66663C10.5 7.56206 9.60457 6.66663 8.5 6.66663C7.39543 6.66663 6.5 7.56206 6.5 8.66663C6.5 9.7712 7.39543 10.6666 8.5 10.6666Z"/>
<path d="M7.01871 14H9.98137C12.062 14 13.1027 14 13.85 13.51C14.1725 13.2986 14.4502 13.0259 14.6674 12.7073C15.1667 11.974 15.1667 10.952 15.1667 8.9093C15.1667 6.86597 15.1667 5.84464 14.6674 5.1113C14.4502 4.79271 14.1725 4.51997 13.85 4.30864C13.37 3.9933 12.7687 3.88064 11.848 3.84064C11.4087 3.84064 11.0307 3.51397 10.9447 3.09064C10.879 2.78055 10.7082 2.50266 10.4613 2.30394C10.2143 2.10521 9.90634 1.99784 9.58937 1.99997H7.41071C6.75204 1.99997 6.18471 2.45664 6.05537 3.09064C5.96937 3.51397 5.59137 3.84064 5.15204 3.84064C4.23204 3.88064 3.63071 3.99397 3.15004 4.30864C2.82779 4.52001 2.55029 4.79275 2.33337 5.1113C1.83337 5.84464 1.83337 6.86597 1.83337 8.9093C1.83337 10.952 1.83337 11.9733 2.33271 12.7073C2.54871 13.0246 2.82604 13.2973 3.15004 13.51C3.89737 14 4.93804 14 7.01871 14Z"/>
<path d="M13.1667 6.66663H12.5" stroke-linecap="round"/>
</svg>
