<svg xmlns="http://www.w3.org/2000/svg" viewBox="0 0 25 25">
<path d="M22.5728 21.4317C26.1477 17.1661 25.709 10.7334 21.6757 7C23.7474 14.5099 18.2694 22.0116 10.7222 22.0116C10.5769 22.0116 11.4538 22.0169 8 21.9948C9.88898 23.9399 12.4049 25 15.0314 25C15.0382 25 24.2869 24.9511 24.2923 24.951C24.9237 24.9479 25.2383 24.153 24.7879 23.6931L22.5728 21.4317Z"/>
<path fill-rule="evenodd" clip-rule="evenodd" d="M21 10.5C21 16.2897 16.2898 21 10.5003 21L0.745255 20.9501C0.0779263 20.9469 -0.249652 20.1361 0.223234 19.6693L2.55644 17.3668C0.902883 15.4595 0.000608431 13.0489 0.000608431 10.5C0.000608431 4.71029 4.71067 0 10.5003 0C16.2899 0 21 4.71029 21 10.5ZM15.0144 6.78385H6.03604C5.62287 6.78385 5.28786 7.11885 5.28786 7.53207C5.28786 7.94528 5.62282 8.28028 6.03604 8.28028H15.0144C15.4276 8.28028 15.7626 7.94528 15.7626 7.53207C15.7626 7.11885 15.4276 6.78385 15.0144 6.78385ZM6.03604 9.77672H15.0144C15.4276 9.77672 15.7626 10.1117 15.7626 10.5249C15.7626 10.9382 15.4276 11.2732 15.0144 11.2732H6.03604C5.62282 11.2732 5.28786 10.9382 5.28786 10.5249C5.28786 10.1117 5.62287 9.77672 6.03604 9.77672ZM6.03604 12.7696C5.62282 12.7696 5.28786 13.1046 5.28786 13.5178C5.28786 13.931 5.62287 14.266 6.03604 14.266H15.0144C15.4276 14.266 15.7626 13.931 15.7626 13.5178C15.7626 13.1046 15.4276 12.7696 15.0144 12.7696H6.03604Z"/>
</svg>
