<svg xmlns="http://www.w3.org/2000/svg" viewBox="0 0 20 20">
<path fill-rule="evenodd" clip-rule="evenodd" d="M4.11351e-05 12.9885C4.11351e-05 9.165 3.71895 6.0545 8.24221 6.0545C12.7655 6.0545 16.4844 9.165 16.4844 12.9885C16.4844 17.1242 12.1679 20 8.82816 20H0.585991C0.355986 20 0.147701 19.8655 0.0526985 19.6561C-0.0428895 19.4467 -0.00624806 19.2012 0.14481 19.0284L1.68004 17.274C0.592866 16.0701 4.11351e-05 14.5168 4.11351e-05 12.9885ZM3.51566 12.8906C3.51566 13.5366 4.0415 14.0625 4.68752 14.0625C5.33355 14.0625 5.85943 13.5366 5.85939 12.8906C5.85939 12.2446 5.33352 11.7188 4.68752 11.7188C4.04153 11.7188 3.51566 12.2446 3.51566 12.8906ZM8.24221 14.0625C7.59618 14.0625 7.07035 13.5366 7.07035 12.8906C7.07035 12.2446 7.59622 11.7188 8.24221 11.7188C8.8882 11.7188 9.41407 12.2446 9.41407 12.8906C9.41407 13.5366 8.88824 14.0625 8.24221 14.0625ZM10.625 12.8906C10.625 13.5366 11.1509 14.0625 11.7969 14.0625C12.4429 14.0625 12.9688 13.5366 12.9688 12.8906C12.9688 12.2446 12.4429 11.7188 11.7969 11.7188C11.1509 11.7188 10.625 12.2446 10.625 12.8906Z" fill="black"/>
<path d="M19.8586 11.923L18.4791 10.3134C19.4638 9.20219 20 7.84716 20 6.44529C20 2.89135 16.5828 0 12.3828 0C8.58486 0 5.35819 2.36681 4.78845 5.44738C5.84816 5.0873 7.03659 4.88261 8.2422 4.88261C13.3733 4.88261 17.5889 8.46647 17.6505 12.8906H19.414C19.9146 12.8906 20.1834 12.3012 19.8586 11.923Z" fill="black"/>
</svg>
