<svg xmlns="http://www.w3.org/2000/svg" viewBox="0 0 20 20">
<path d="M19.9358 8.84816C19.8933 8.74648 19.8325 8.65398 19.755 8.57648L17.2558 6.07731C16.93 5.75231 16.4033 5.75231 16.0775 6.07731C15.7517 6.40313 15.7517 6.93063 16.0775 7.25562L17.155 8.33312H12.4999C12.0391 8.33312 11.6666 8.70644 11.6666 9.16644C11.6666 9.62644 12.0391 9.99976 12.4999 9.99976H17.1549L16.0774 11.0773C15.7516 11.4031 15.7516 11.9306 16.0774 12.2556C16.2399 12.4189 16.4533 12.4998 16.6666 12.4998C16.88 12.4998 17.0933 12.4189 17.2558 12.2556L19.755 9.7564C19.8325 9.67972 19.8933 9.58722 19.9358 9.48472C20.0199 9.28148 20.0199 9.05148 19.9358 8.84816Z"/>
<path d="M14.1666 11.6667C13.7058 11.6667 13.3333 12.04 13.3333 12.5V16.6666H9.99998V3.33331C9.99998 2.96581 9.7583 2.64082 9.4058 2.535L6.51163 1.66668H13.3333V5.83335C13.3333 6.29335 13.7058 6.66667 14.1666 6.66667C14.6274 6.66667 14.9999 6.29335 14.9999 5.83335V0.833358C14.9999 0.37332 14.6274 0 14.1666 0H0.833319C0.803319 0 0.776639 0.0125 0.747499 0.0158203C0.708319 0.02 0.672499 0.0266406 0.634999 0.0358202C0.547499 0.0583202 0.468319 0.0924998 0.394179 0.13914C0.375859 0.15082 0.353359 0.15164 0.335859 0.164961C0.32914 0.17 0.32664 0.179179 0.31996 0.184179C0.22914 0.25582 0.15332 0.34332 0.0983201 0.447499C0.0866405 0.469999 0.0841405 0.494179 0.0749999 0.517499C0.0483202 0.580819 0.0191796 0.642499 0.00917967 0.712499C0.00499999 0.737499 0.0125 0.760819 0.0116797 0.784998C0.0108594 0.801678 0 0.816678 0 0.833319V17.5C0 17.8975 0.28082 18.2391 0.669999 18.3166L9.0033 19.9833C9.05748 19.995 9.11248 20 9.16662 20C9.35744 20 9.54494 19.9342 9.69494 19.8108C9.88744 19.6525 9.99994 19.4166 9.99994 19.1666V18.3333H14.1666C14.6274 18.3333 14.9999 17.96 14.9999 17.5V12.5C14.9999 12.04 14.6274 11.6667 14.1666 11.6667Z"/>
</svg>
