<svg viewBox="0 0 31 30" xmlns="http://www.w3.org/2000/svg">
<path d="M12.9818 10.9228C13.2319 10.9497 13.4671 11.019 13.6812 11.1229L24.6258 2.35423V16.3296C24.8004 16.2783 24.9801 16.2512 25.1629 16.2512C25.3457 16.2512 25.5254 16.2783 25.7 16.3296C25.7 15.7541 25.7 2.01538 25.7 1.49375L25.9686 1.27845C26.2773 1.03109 26.3271 0.580374 26.0798 0.271938C25.8326 -0.0369668 25.3819 -0.0865787 25.0733 0.160779L11.7979 10.7967L12.9818 10.9228Z"/>
<path d="M30.3662 27.4435C28.9958 26.4412 27.1541 26.4412 25.7835 27.4435C24.9419 28.059 23.8109 28.059 22.9694 27.4435C21.5987 26.4412 19.757 26.4412 18.3866 27.4435C17.5448 28.059 16.4141 28.059 15.5723 27.4435C14.2019 26.4412 12.3602 26.4412 10.9895 27.4435C10.148 28.059 9.01697 28.059 8.17544 27.4435C8.1731 27.4417 8.17029 27.4403 8.16795 27.4384V26.0628C7.74905 26.1106 7.35356 26.0481 6.98896 25.8953C5.78517 25.3907 5.21814 24.0061 5.72269 22.8023L7.96365 17.4542H8.90908L6.52678 23.1392C6.20851 23.8989 6.56609 24.7727 7.32572 25.0912C8.08534 25.4095 8.9594 25.0516 9.27766 24.292L12.5265 16.5392C12.7196 16.0789 12.6693 15.5526 12.3929 15.137C12.3892 15.1311 12.385 15.126 12.381 15.1204C11.6417 15.0415 8.42162 14.6977 7.17454 14.5648C6.73388 14.5178 6.36554 14.2465 6.17154 13.8831L4.37942 10.4688L6.83428 13.3105C7.04045 13.5489 7.32946 13.7003 7.64304 13.7338C12.8947 14.2917 12.6321 14.2725 12.7585 14.2725C13.3856 14.2725 13.9248 13.7991 13.9927 13.1614C14.0657 12.479 13.5712 11.8666 12.8888 11.7938L8.39448 11.3143L6.26023 8.84376L8.45298 10.4395L10.6357 10.6724L12.2078 9.41266L9.02539 9.58934L8.17614 9.09416V8.04412C8.17614 7.26694 7.54616 6.63696 6.76899 6.63696H2.86158C2.0844 6.63696 1.45442 7.26694 1.45442 8.04412V16.0113C1.45442 16.6356 1.86138 17.1648 2.4242 17.3487L0 17.3559V30H8.16795V29.1355C9.38367 29.6138 10.7791 29.4535 11.8739 28.653C12.7156 28.0375 13.8464 28.0375 14.6882 28.653C16.0586 29.6553 17.9003 29.6553 19.271 28.653C20.1125 28.0375 21.2435 28.0375 22.085 28.653C22.7702 29.154 23.5734 29.4046 24.3765 29.4046C25.1795 29.4046 25.9826 29.154 26.6678 28.653C27.5096 28.0375 28.6404 28.0375 29.4819 28.653C29.8161 28.8973 30.2846 28.8245 30.5289 28.4905C30.773 28.1564 30.7002 27.6879 30.3662 27.4435Z"/>
<path d="M5.99404 0.00701832C4.48298 -0.100396 3.17084 1.03787 3.06366 2.54893C2.95624 4.06022 4.09451 5.37213 5.60557 5.47954C7.11686 5.58672 8.429 4.44869 8.53618 2.9374C8.64336 1.42611 7.50533 0.114199 5.99404 0.00701832Z"/>
<path fill-rule="evenodd" clip-rule="evenodd" d="M23.4258 20.0413C23.4258 18.4226 24.2034 17.1105 25.1627 17.1105C26.1219 17.1105 26.8996 18.4226 26.8996 20.0413C26.8996 21.3315 26.4053 23.0625 25.7189 23.7126C25.9965 23.8191 26.2356 24.0028 26.4098 24.2377C26.6014 24.4959 26.7147 24.8153 26.7147 25.1614C26.7147 25.6527 26.4864 25.5261 26.1302 25.3285C25.8649 25.1813 25.5286 24.9948 25.1627 24.9948C24.7968 24.9948 24.4604 25.1813 24.1951 25.3285C23.8389 25.5261 23.6107 25.6527 23.6107 25.1614C23.6107 24.8153 23.7239 24.4959 23.9153 24.2377C24.0897 24.0028 24.3289 23.8191 24.6064 23.7126C23.92 23.0625 23.4258 21.3315 23.4258 20.0413ZM25.3511 18.8651C25.3511 19.035 25.4889 19.1729 25.6588 19.1729C25.8284 19.1729 25.9663 19.035 25.9663 18.8651C25.9663 18.6955 25.8284 18.5576 25.6588 18.5576C25.4889 18.5576 25.3511 18.6955 25.3511 18.8651Z"/>
</svg>
