<svg viewBox="0 0 30 30" xmlns="http://www.w3.org/2000/svg">
<path d="M15.0912 18.6406C16.3919 18.4083 17.7216 18.2906 19.043 18.2906C19.485 18.2906 19.917 18.3338 20.3355 18.4155C20.4492 17.6493 20.5078 16.8762 20.5078 16.1133C20.5078 13.7705 19.9418 11.784 18.8711 10.3685C17.8148 8.97212 16.3152 8.20313 14.6484 8.20313C13.5857 8.20313 12.5818 8.51807 11.7187 9.11802V6.73829C11.7187 5.2844 12.9016 4.10157 14.3555 4.10157C14.8409 4.10157 15.2344 3.70806 15.2344 3.22267C15.2344 2.73728 14.8409 2.34376 14.3555 2.34376C13.13 2.34376 12.0207 2.84843 11.2229 3.66025C10.9681 2.97874 10.5844 2.28839 10.0074 1.71142C8.14927 -0.146765 5.11535 -0.00162839 4.98709 0.00516848C4.53978 0.029895 4.1826 0.387082 4.15799 0.834387C4.1509 0.96259 4.00605 3.99657 5.86418 5.85464C7.11176 7.10222 8.88867 7.44663 9.96093 7.53628V9.11808C9.09785 8.51813 8.09402 8.20313 7.03125 8.20313C5.36449 8.20313 3.86484 8.97212 2.80857 10.3685C1.73783 11.7841 1.17188 13.7705 1.17188 16.1133C1.17188 17.7478 1.45295 19.4541 1.94906 20.9875L15.0912 18.6406Z"/>
<path d="M19.043 20.0483C18.3597 20.0483 17.6742 20.0837 16.9922 20.1515V22.978C16.9922 23.4634 16.5987 23.8569 16.1133 23.8569C15.6279 23.8569 15.2344 23.4634 15.2344 22.978V20.4006L11.7187 21.0284V22.978C11.7187 23.4634 11.3252 23.8569 10.8398 23.8569C10.3544 23.8569 9.96093 23.4634 9.96093 22.978V21.3423L1.87805 22.7857C0.789843 22.98 0 23.9234 0 25.0288C0 26.1342 0.789843 27.0776 1.87805 27.2719L7.03125 28.1922V26.7866C7.03125 26.3012 7.42476 25.9077 7.91015 25.9077C8.39554 25.9077 8.78906 26.3012 8.78906 26.7866V28.3352C8.78906 28.3927 8.78314 28.4487 8.77259 28.5031L12.3047 29.1338V27.0796C12.3047 26.5942 12.6982 26.2007 13.1836 26.2007C13.669 26.2007 14.0625 26.5942 14.0625 27.0796V29.2769C14.0625 29.3343 14.0566 29.3904 14.046 29.4448L15.4002 29.6866C16.1191 29.815 16.8475 29.9046 17.5781 29.9564V27.6655C17.5781 27.1801 17.9716 26.7866 18.457 26.7866C18.9424 26.7866 19.3359 27.1801 19.3359 27.6655V29.9963C19.3359 29.9976 19.3358 29.9987 19.3358 30C21.9462 29.8478 24.0234 27.6767 24.0234 25.0288C24.0234 22.2826 21.7892 20.0483 19.043 20.0483Z"/>
<path d="M25.7505 25.6732L27.8089 25.4736C28.5198 25.4047 29.1608 25.0286 29.5678 24.4416C29.9747 23.8546 30.102 23.1223 29.9171 22.4324C29.7323 21.7427 29.2559 21.1721 28.6101 20.8672C27.9643 20.5624 27.221 20.5571 26.5707 20.8528L24.8599 21.6311C25.4452 22.6293 25.7813 23.7905 25.7813 25.0289C25.7813 25.2461 25.7708 25.461 25.7505 25.6732Z"/>
<path d="M27.9784 27.2233L25.319 27.4811C25.1904 27.8095 25.0368 28.1255 24.8604 28.4268L26.5705 29.2048C26.8903 29.3503 27.2326 29.423 27.5748 29.423C27.9282 29.423 28.2816 29.3454 28.6098 29.1905C29.2556 28.8856 29.7321 28.3151 29.9169 27.6252C30.0167 27.253 30.0222 26.8698 29.946 26.505C29.3686 26.9027 28.6944 27.1539 27.9784 27.2233Z"/>
</svg>
