<svg viewBox="0 0 25 22" xmlns="http://www.w3.org/2000/svg">
<path d="M24.6447 5.53258L24.6408 5.4915C24.5148 4.16325 23.9758 2.92292 23.1143 1.97859C22.2529 1.03427 21.1213 0.443407 19.9095 0.305142C18.1335 0.102425 15.2069 0 12.4598 0C9.71284 0 6.78624 0.102425 5.01022 0.305142C3.7984 0.443407 2.66682 1.03427 1.80535 1.97859C0.94387 2.92292 0.404909 4.16325 0.278886 5.4915L0.274993 5.53204C0.121191 7.14791 0 7.40717 0 10.8155C0 14.2238 0.121191 14.7733 0.274993 16.3891L0.278886 16.4297C0.404751 17.7579 0.943673 18.9983 1.80519 19.9426C2.66671 20.8869 3.79837 21.4776 5.01022 21.6155C6.78624 21.8182 9.71284 21.9212 12.4598 21.9212C15.2069 21.9212 18.1335 21.8188 19.909 21.6155C21.1209 21.4777 22.2527 20.887 23.1143 19.9427C23.9759 18.9985 24.5149 17.758 24.6408 16.4297L24.6447 16.3886C24.7985 14.7727 24.9197 14.2227 24.9197 10.8155C24.9197 7.40824 24.7985 7.14844 24.6447 5.53258ZM6.91522 4.55527C7.47491 4.55474 8.02218 4.73618 8.48778 5.07662C8.95338 5.41707 9.31639 5.90124 9.53089 6.46786C9.74539 7.03449 9.80174 7.65811 9.69281 8.25984C9.58388 8.86158 9.31456 9.41438 8.91893 9.84831C8.5233 10.2822 8.01913 10.5778 7.47021 10.6976C6.92129 10.8174 6.35228 10.7561 5.83516 10.5214C5.31805 10.2867 4.87607 9.88913 4.56514 9.37904C4.2542 8.86895 4.08829 8.26923 4.08839 7.65577C4.08839 6.83384 4.38615 6.04553 4.91623 5.46414C5.44631 4.88274 6.16532 4.55583 6.91522 4.55527ZM11.6363 15.1403V15.1536C11.5886 15.6105 11.4137 16.0402 11.1355 16.3843C10.862 16.7348 10.4929 16.9796 10.0827 17.0826C9.49869 17.2272 8.0439 17.3697 7.13521 17.3632C6.227 17.3878 4.44271 17.2331 3.85915 17.081C3.4489 16.9783 3.07977 16.7334 2.80639 16.3827C2.52827 16.0387 2.35342 15.6092 2.30556 15.1526V15.1387C2.27531 14.8094 2.26604 14.4782 2.27782 14.1475C2.26601 13.8733 2.27529 13.5985 2.30556 13.326V13.3126C2.34806 12.8778 2.52555 12.4721 2.80833 12.1636C3.09254 11.8519 3.46496 11.6553 3.8645 11.6061C4.44855 11.5383 6.22992 11.4994 7.13472 11.4994C8.03952 11.4994 9.49236 11.5362 10.0774 11.6061C10.477 11.6553 10.8495 11.8521 11.1336 12.1641C11.4149 12.4733 11.591 12.8789 11.6324 13.3132V13.3265C11.6616 13.5988 11.6762 13.8728 11.6762 14.147C11.6786 14.4786 11.6649 14.8102 11.6354 15.1403H11.6363ZM17.9597 14.195H14.6466C14.5044 14.195 14.3635 14.1643 14.232 14.1046C14.1006 14.0449 13.9812 13.9575 13.8806 13.8472C13.7799 13.7369 13.7001 13.606 13.6457 13.4619C13.5912 13.3179 13.5632 13.1634 13.5632 13.0075C13.5632 12.8516 13.5912 12.6971 13.6457 12.5531C13.7001 12.409 13.7799 12.2781 13.8806 12.1678C13.9812 12.0575 14.1006 11.9701 14.232 11.9104C14.3635 11.8507 14.5044 11.82 14.6466 11.82H17.9597C18.247 11.82 18.5226 11.9451 18.7258 12.1678C18.929 12.3905 19.0431 12.6926 19.0431 13.0075C19.0431 13.3224 18.929 13.6245 18.7258 13.8472C18.5226 14.0699 18.247 14.195 17.9597 14.195ZM21.2382 10.1012H14.6466C14.3632 10.0946 14.0934 9.96656 13.8951 9.74453C13.6968 9.5225 13.5857 9.22414 13.5857 8.91342C13.5857 8.60269 13.6968 8.30433 13.8951 8.0823C14.0934 7.86027 14.3632 7.73224 14.6466 7.72565H21.2377C21.5211 7.73224 21.7909 7.86027 21.9893 8.0823C22.1876 8.30433 22.2987 8.60269 22.2987 8.91342C22.2987 9.22414 22.1876 9.5225 21.9893 9.74453C21.7909 9.96656 21.5211 10.0946 21.2377 10.1012H21.2382Z"/>
</svg>
