<svg viewBox="0 0 18 18" xmlns="http://www.w3.org/2000/svg">
<path fill-rule="evenodd" clip-rule="evenodd" d="M14.9678 13.9072C15.261 14.2005 15.261 14.6745 14.9678 14.9677C14.6745 15.261 14.2005 15.261 13.9073 14.9677L13.125 14.1855L12.3428 14.9677C12.0495 15.261 11.5755 15.261 11.2823 14.9677C10.989 14.6745 10.989 14.2005 11.2823 13.9072L12.0645 13.125L11.2823 12.3427C10.989 12.0495 10.989 11.5755 11.2823 11.2822C11.5755 10.989 12.0495 10.989 12.3428 11.2822L13.125 12.0645L13.9073 11.2822C14.2005 10.989 14.6745 10.989 14.9678 11.2822C15.261 11.5755 15.261 12.0495 14.9678 12.3427L14.1855 13.125L14.9678 13.9072ZM13.125 8.25C10.437 8.25 8.25 10.437 8.25 13.125C8.25 15.813 10.437 18 13.125 18C15.813 18 18 15.813 18 13.125C18 10.437 15.813 8.25 13.125 8.25V8.25Z"/>
<path fill-rule="evenodd" clip-rule="evenodd" d="M6.62999 11.25H3.5625C3.252 11.25 3 10.998 3 10.6875C3 10.377 3.252 10.125 3.5625 10.125H6.62999C6.94049 10.125 7.19249 10.377 7.19249 10.6875C7.19249 10.998 6.94049 11.25 6.62999 11.25"/>
<path fill-rule="evenodd" clip-rule="evenodd" d="M6.18751 13.5H3.5625C3.252 13.5 3 13.248 3 12.9375C3 12.627 3.252 12.375 3.5625 12.375H6.18751C6.49801 12.375 6.75001 12.627 6.75001 12.9375C6.75001 13.248 6.49801 13.5 6.18751 13.5"/>
<path fill-rule="evenodd" clip-rule="evenodd" d="M6.1875 15.75H2.06251C0.92475 15.75 0 14.8253 0 13.6875V2.06251C0 0.92475 0.92475 0 2.06251 0H10.6875C11.8252 0 12.75 0.92475 12.75 2.06251V6.2325C12.75 6.543 12.498 6.795 12.1875 6.795C11.877 6.795 11.625 6.543 11.625 6.2325V2.06251C11.625 1.54575 11.2042 1.125 10.6875 1.125H2.06251C1.54575 1.125 1.125 1.54575 1.125 2.06251V13.6875C1.125 14.2043 1.54575 14.625 2.06251 14.625H6.1875C6.498 14.625 6.75 14.877 6.75 15.1875C6.75 15.498 6.498 15.75 6.1875 15.75"/>
<path fill-rule="evenodd" clip-rule="evenodd" d="M6.37501 2.25C7.20343 2.25 7.87502 2.92159 7.87502 3.75001C7.87502 4.57843 7.20343 5.24999 6.37501 5.24999C5.54659 5.24999 4.875 4.57843 4.875 3.75001C4.875 2.92159 5.54659 2.25 6.37501 2.25"/>
<path fill-rule="evenodd" clip-rule="evenodd" d="M8.81251 8.99999H3.9375C3.627 8.99999 3.375 8.74799 3.375 8.43749V8.06248C3.375 6.92475 4.29979 6 5.43751 6H7.3125C8.45026 6 9.37501 6.92475 9.37501 8.06248V8.43749C9.37501 8.74799 9.12305 8.99999 8.81251 8.99999"/>
</svg>
