<svg xmlns="http://www.w3.org/2000/svg" viewBox="0 0 44 40">
<path d="M11.2679 31.5531C8.38125 31.5531 5.81372 29.705 4.88156 26.9536L4.81845 26.7462C4.59848 26.0178 4.50652 25.4048 4.50652 24.7917V12.4987L0.132363 27.0996C-0.430184 29.247 0.851774 31.4738 3.00279 32.067L30.8831 39.5334C31.2311 39.6235 31.5791 39.6668 31.9217 39.6668C33.7175 39.6668 35.3582 38.475 35.818 36.7188L37.4426 31.5531H11.2679Z"/>
<path d="M16.2263 12.6213C18.2151 12.6213 19.8324 11.0039 19.8324 9.01519C19.8324 7.02644 18.2151 5.40912 16.2263 5.40912C14.2376 5.40912 12.6202 7.02644 12.6202 9.01519C12.6202 11.0039 14.2376 12.6213 16.2263 12.6213Z"/>
<path fill-rule="evenodd" clip-rule="evenodd" d="M11.7186 0H38.7642C41.2487 0 43.2717 2.023 43.2717 4.50759V24.341C43.2717 26.8255 41.2487 28.8486 38.7642 28.8486H11.7186C9.23406 28.8486 7.21106 26.8255 7.21106 24.341V4.50759C7.21106 2.023 9.23406 0 11.7186 0ZM38.7642 3.60607H11.7186C11.221 3.60607 10.8171 4.00995 10.8171 4.50759V21.5264L15.7935 16.5519C17.025 15.3186 19.0318 15.3186 20.265 16.5519L22.4467 18.7281L29.1432 10.6902C29.7418 9.97258 30.6181 9.55789 31.552 9.55248C32.4914 9.57411 33.3659 9.95275 33.9699 10.6613L39.6657 17.3073V4.50759C39.6657 4.00995 39.2618 3.60607 38.7642 3.60607Z"/>
</svg>
