<svg viewBox="0 0 37 24" xmlns="http://www.w3.org/2000/svg">
<path d="M28.3161 1.67501C28.3161 1.67501 26.4707 -1.32357 30.2765 0.867782C30.2765 0.867782 31.6606 -1.08663 33.7363 0.870643C33.7363 0.870643 33.967 1.09956 36.389 0.348703C36.389 0.348703 37.2935 1.41261 35.5763 2.41643C35.4374 2.49757 35.2793 2.54024 35.1185 2.54005H34.4849C34.4849 2.54005 34.658 3.28948 34.4277 3.75076C33.953 4.52448 33.9311 5.49372 34.3705 6.28806L35.0048 7.44154C35.0048 7.44154 35.639 8.13345 34.4858 8.36409C34.1847 8.50244 33.8687 8.60566 33.544 8.67171C32.8988 8.82337 33.0404 8.90063 31.3805 8.31058C31.3391 8.2959 31.2929 8.3055 31.2608 8.33548C30.2554 9.35821 29.6009 10.674 29.392 12.0929C28.9696 14.6302 27.8688 15.2844 27.8688 15.2844C27.4337 15.5295 26.9521 15.6809 26.4549 15.7288C26.375 15.7396 26.3139 15.8054 26.309 15.8859C26.2738 16.4753 26.1227 18.7474 25.8557 19.2825C25.5481 19.8974 26.0477 21.3969 26.0477 21.3969L26.105 21.8001C26.1172 21.8863 26.1479 21.9689 26.1951 22.0421C26.3548 22.2891 26.7228 22.9006 26.6624 23.2036C26.2077 23.3758 25.7154 23.4241 25.2359 23.3436C25.0342 23.2938 24.8924 23.1127 24.8925 22.9049V22.8863C24.8924 22.8484 24.8633 22.8169 24.8256 22.8136L24.5557 22.7913C24.5245 22.7888 24.4958 22.773 24.4769 22.748C24.458 22.7229 24.4508 22.691 24.457 22.6602C24.6854 21.5361 24.7286 20.3822 24.5849 19.2441C24.3179 17.5135 23.7788 15.5133 23.7788 15.5133C23.7788 15.5133 23.6252 14.9367 23.3943 15.9362C23.1633 16.9358 22.3195 19.2047 22.1266 19.3191C21.9655 19.4158 22.0745 21.6178 22.114 22.3291C22.1215 22.4658 22.1779 22.5952 22.2728 22.6937C22.5395 22.9721 23.0603 23.5839 22.8571 23.9325H21.3119C21.1872 23.9324 21.0718 23.8666 21.0083 23.7593L21.0057 23.755C20.9303 23.6271 20.8051 23.5362 20.6601 23.5041C20.5744 23.4853 20.5143 23.4081 20.517 23.3204L20.6661 18.4352C20.4955 17.2903 20.444 16.1308 20.5124 14.9753C20.5124 14.9753 20.1278 13.5915 17.5905 15.0898C15.16 16.5263 13.7527 16.0221 12.4555 15.4363C12.3518 15.3897 12.2304 15.4086 12.1456 15.4844L10.7861 16.7045V17.585C10.7887 17.7004 10.7226 17.8062 10.6179 17.8546C10.5364 17.8904 10.4411 17.8713 10.3798 17.8068C10.2942 17.728 10.2462 17.6164 10.2479 17.5001V17.2654C10.2484 17.1528 10.2077 17.0439 10.1334 16.9592C10.0061 16.8161 9.78203 16.6865 9.5119 17.0594C9.46548 17.1231 9.44053 17.2 9.44065 17.2789V17.7261C9.44219 17.8877 9.3465 18.0344 9.19799 18.0981L9.18941 18.1015C9.08015 18.1425 8.95774 18.1271 8.86205 18.0603C8.76636 17.9936 8.70965 17.884 8.71039 17.7673V17.1115C8.71054 17.0546 8.67114 17.0054 8.61567 16.993C8.2969 16.9212 7.26017 16.6754 6.90391 16.4399C6.87072 16.4185 6.82972 16.4131 6.79213 16.4251C6.75453 16.4371 6.72427 16.4653 6.70962 16.502C6.48527 17.0531 5.90524 18.7543 6.69159 20.0216C6.75353 20.1195 6.79265 20.2302 6.80605 20.3453C6.89694 21.2342 7.15182 22.0986 7.55777 22.8946C7.76122 23.2434 7.87511 23.4486 7.93892 23.569C7.9648 23.6182 7.96864 23.676 7.9495 23.7281C7.93035 23.7803 7.89001 23.8219 7.83848 23.8426C7.33366 24.0017 6.79871 24.0408 6.2761 23.9571C6.15313 23.946 6.05886 23.843 6.05862 23.7196V23.3189C5.89944 23.2732 5.78967 23.1277 5.78935 22.9621V22.304C5.78942 22.2383 5.77527 22.1734 5.74786 22.1137C5.51894 21.6146 4.41754 19.1915 4.52084 18.7437L4.51398 21.2426V21.8856C4.51404 22.0927 4.57723 22.2948 4.69511 22.4651L5.30404 23.3436C5.34171 23.3974 5.33065 23.4713 5.27886 23.5118C5.08885 23.6586 4.58809 23.9382 3.76226 23.6603C3.58918 23.6012 3.45476 23.463 3.40056 23.2883L3.28982 22.9341C3.04014 22.8659 2.86692 22.6392 2.86689 22.3804V16.9753C2.86689 16.9753 2.46542 16.2287 2.57501 15.8109C2.61417 15.5624 2.69464 15.3223 2.81309 15.1004C2.89595 14.9957 2.95053 14.8714 2.97162 14.7395L3.12385 13.6522C3.18252 13.2334 3.1519 12.8069 3.034 12.4008L1.48277 7.05695C1.32365 6.42103 1.30762 5.75771 1.43584 5.11484C1.47322 4.97297 1.43917 4.82179 1.34456 4.70965C1.24384 4.59519 1.12136 4.59519 1.09933 5.21185C1.06099 6.28806 0.868692 9.74792 1.09933 11.2474C1.25567 12.6942 1.33209 14.1485 1.32825 15.6037C1.32922 15.7932 1.35383 15.9818 1.40151 16.1652C1.65991 17.2446 1.51222 18.3813 0.986586 19.3589L0.52159 20.1278V18.1407C0.521598 17.9536 0.50009 17.767 0.457492 17.5848C0.274051 16.8386 0.296102 16.0568 0.521304 15.3222L0.641201 14.6331C0.663734 14.5033 0.671891 14.3715 0.665524 14.2399C0.622029 13.3386 0.438606 9.6532 0.333589 8.97903C0.213977 8.21043 -0.353175 6.86466 0.333589 3.55875C1.02035 0.252842 4.13511 0.713832 4.13511 0.713832C4.13511 0.713832 6.78774 0.636857 7.82647 1.02144C8.80396 1.38343 15.8856 1.33621 16.706 1.32963C16.7559 1.32935 16.8057 1.32504 16.8548 1.31675C20.6664 0.758108 24.5468 0.879404 28.3161 1.67501Z"/>
</svg>
