<svg viewBox="0 0 15 20" xmlns="http://www.w3.org/2000/svg">
<path d="M1.48584 8.61265C2.19308 8.45457 3.043 8.29477 3.99796 8.17259V6.60884C3.99796 4.78699 5.48014 3.30481 7.30199 3.30481C9.12385 3.30481 10.606 4.78699 10.606 6.60884V8.17259C11.561 8.29477 12.4109 8.45457 13.1181 8.61265V6.60884C13.1181 3.40184 10.509 0.792725 7.30199 0.792725C4.09496 0.792725 1.48584 3.40184 1.48584 6.60888V8.61265Z"/>
<path d="M7.30196 12.4672C6.92431 12.4672 6.61707 12.7744 6.61707 13.1521C6.61707 13.5298 6.92431 13.837 7.30196 13.837C7.67962 13.837 7.98686 13.5298 7.98686 13.1521C7.9869 12.7744 7.67962 12.4672 7.30196 12.4672V12.4672Z"/>
<path fill-rule="evenodd" clip-rule="evenodd" d="M0 10.1388C0.98377 9.83583 3.85512 9.05457 7.30199 9.05457C10.7412 9.05457 13.6187 9.83635 14.6039 10.1391V18.4268C13.6202 18.7298 10.7489 19.511 7.30199 19.511C3.86284 19.511 0.985268 18.7292 0 18.4265V10.1388ZM7.85038 16.6468V14.8471C8.56526 14.6152 9.0837 13.9432 9.08366 13.1521C9.08366 12.1697 8.28441 11.3704 7.30199 11.3704C6.31957 11.3704 5.52032 12.1697 5.52032 13.1521C5.52032 13.9432 6.03876 14.6152 6.7536 14.8471V16.6468H7.85038Z"/>
</svg>
