<svg viewBox="0 0 35 30" xmlns="http://www.w3.org/2000/svg">
<path d="M31.8306 18.0818C31.0754 17.332 30.1998 16.7026 29.2585 16.2484C28.8918 17.841 27.6331 19.1052 26.0405 19.4664C27.3868 22.2246 30.1834 24.3699 33.2043 24.6819C33.2536 24.6873 33.2919 24.6873 33.3302 24.6873C34.0033 24.6873 34.5451 24.0963 34.474 23.4122C34.2715 21.4256 33.2754 19.532 31.8306 18.0818Z"/>
<path d="M24.1253 19.4664C22.5327 19.1052 21.2685 17.841 20.9019 16.2484C19.9605 16.7026 19.0904 17.332 18.3352 18.0818C16.8904 19.532 15.8943 21.4256 15.6918 23.4122C15.6207 24.0963 16.1625 24.6873 16.8356 24.6873C16.8739 24.6873 16.9123 24.6873 16.956 24.6819C19.9824 24.3699 22.779 22.2246 24.1253 19.4664Z"/>
<path fill-rule="evenodd" clip-rule="evenodd" d="M28.2735 15.2853C28.2735 13.5231 26.8451 12.0892 25.0774 12.0892C23.3097 12.0892 21.8813 13.5176 21.8813 15.2853C21.8813 17.053 23.3097 18.4814 25.0774 18.4814C26.8451 18.4814 28.2735 17.0475 28.2735 15.2853ZM24.0376 15.143C23.7366 15.143 23.4903 14.8967 23.4903 14.5957C23.4903 14.2947 23.7366 14.0485 24.0376 14.0485C24.3386 14.0485 24.5849 14.2947 24.5849 14.5957C24.5849 14.9022 24.3386 15.143 24.0376 15.143ZM25.5754 14.5957C25.5754 14.8967 25.8217 15.143 26.1227 15.143C26.4292 15.143 26.67 14.9022 26.67 14.5957C26.67 14.2947 26.4237 14.0485 26.1227 14.0485C25.8217 14.0485 25.5754 14.2947 25.5754 14.5957Z"/>
<path d="M19.8347 25.1306C19.6267 26.5152 19.6541 27.6973 20.1247 28.3705C21.6571 30.5431 28.5089 30.5431 30.0413 28.3705C30.5119 27.7028 30.5393 26.5152 30.3313 25.1306C28.0109 26.8819 22.1496 26.8819 19.8347 25.1306Z"/>
<path d="M25.7612 11.0549C26.1279 11.1151 26.4836 11.2191 26.812 11.3669C27.0911 10.7649 27.6986 10.3489 28.3991 10.3489C28.7001 10.3489 28.9463 10.1027 28.9463 9.80167C28.9463 9.49519 28.7001 9.25439 28.3991 9.25439C27.2006 9.25439 26.1717 9.99868 25.7612 11.0549Z"/>
<path d="M24.3985 11.0549C23.988 9.99868 22.9592 9.25439 21.7606 9.25439C21.4597 9.25439 21.2134 9.49519 21.2134 9.80167C21.2134 10.1027 21.4597 10.3489 21.7606 10.3489C22.4612 10.3489 23.0686 10.7649 23.3477 11.3669C23.6761 11.2191 24.0318 11.1151 24.3985 11.0549Z"/>
<path fill-rule="evenodd" clip-rule="evenodd" d="M17.5577 17.3102C15.8721 19.0012 14.8213 21.1301 14.5969 23.2973C14.5422 23.861 14.7064 24.4137 15.0457 24.868C14.7939 24.961 14.5477 25.0486 14.2959 25.1252C14.1755 24.1729 13.371 23.4451 12.3859 23.4451C11.3188 23.4451 10.4596 24.3043 10.4596 25.3715V25.3715C10.4596 25.4207 10.4596 25.47 10.465 25.5192C8.37445 25.3277 6.34408 24.4739 4.68038 22.9799L6.19632 21.4639H12.3859C12.6869 21.4639 12.9332 21.2177 12.9332 20.9167C12.9332 20.6157 12.6869 20.3694 12.3859 20.3694H7.28538L9.39785 18.2569H13.984C14.285 18.2569 14.5312 18.0107 14.5312 17.7097C14.5312 17.4087 14.285 17.1624 13.984 17.1624H10.4924L12.6049 15.0499H15.5875C15.8885 15.0499 16.1347 14.8037 16.1347 14.5027C16.1347 14.2017 15.8885 13.9554 15.5875 13.9554H13.6994L15.5109 12.1439C15.7243 11.9305 15.7243 11.5857 15.5109 11.3723C15.2974 11.1588 14.9526 11.1588 14.7392 11.3723L12.9277 13.1837V11.2957C12.9277 10.9947 12.6815 10.7484 12.3805 10.7484C12.0795 10.7484 11.8332 10.9947 11.8332 11.2957V14.2783L9.72074 16.3908V12.8992C9.72074 12.5982 9.47447 12.3519 9.17347 12.3519C8.87247 12.3519 8.6262 12.5982 8.6262 12.8992V17.4853L6.51373 19.5978V14.4972C6.51373 14.1962 6.26746 13.9499 5.96646 13.9499C5.66546 13.9499 5.41919 14.1962 5.41919 14.4972V20.6923L3.90872 22.2028C0.362412 18.2569 0.477339 12.1822 4.2754 8.38418C4.78983 7.86975 5.55601 7.34437 6.50826 6.81899C6.95155 7.95184 8.05156 8.75086 9.34312 8.75086C11.0232 8.75086 12.3914 7.38268 12.3914 5.69709C12.3914 5.22096 12.2874 4.77767 12.0904 4.38364C18.7452 1.94281 26.8831 0 26.8831 0C26.8831 0 25.8652 4.27418 24.3712 9.16131C23.6761 8.54289 22.7622 8.1598 21.7607 8.1598C20.8577 8.1598 20.1189 8.89862 20.1189 9.80161C20.1189 10.7046 20.8577 11.4434 21.7607 11.4434C22.0726 11.4434 22.3189 11.6678 22.3846 11.9579C21.4652 12.7076 20.8632 13.8295 20.803 15.0937C19.6209 15.6082 18.5154 16.3579 17.5577 17.3102ZM17.5631 4.89807C16.5014 4.89807 15.6367 5.75729 15.6367 6.82446C15.6367 7.89164 16.5014 8.75085 17.5631 8.75085C18.6248 8.75085 19.4895 7.88617 19.4895 6.82446C19.4895 5.76276 18.6248 4.89807 17.5631 4.89807Z"/>
<path d="M3.08797 23.0236L3.13176 22.9799L0.160077 25.9515C-0.0533589 26.165 -0.0533589 26.5098 0.160077 26.7232C0.269531 26.8326 0.406348 26.8819 0.548639 26.8819C0.690929 26.8819 0.827747 26.8272 0.937201 26.7232L3.8651 23.7953L3.52032 23.4122L3.08797 23.0236Z"/>
<path d="M20.8633 24.4959C21.821 25.0267 23.3807 25.3496 25.0773 25.3496C26.7738 25.3496 28.3281 25.0322 29.2912 24.5014C27.5126 23.4615 26.0076 21.8799 25.0773 19.9973C24.1524 21.8745 22.6474 23.4561 20.8633 24.4959Z"/>
</svg>
