<svg viewBox="0 0 30 30" xmlns="http://www.w3.org/2000/svg">
<path d="M28.125 26.25H1.875C1.185 26.25 0.625 25.69 0.625 25C0.625 24.31 1.185 23.75 1.875 23.75H28.125C28.815 23.75 29.375 24.31 29.375 25C29.375 25.69 28.815 26.25 28.125 26.25Z"/>
<path d="M28.125 12.5H1.875C1.185 12.5 0.625 11.94 0.625 11.25C0.625 10.56 1.185 10 1.875 10H28.125C28.815 10 29.375 10.56 29.375 11.25C29.375 11.94 28.815 12.5 28.125 12.5Z"/>
<path d="M1.25 30C0.56 30 0 29.44 0 28.75V1.25C0 0.56 0.56 0 1.25 0C1.94 0 2.5 0.56 2.5 1.25V28.75C2.5 29.44 1.94 30 1.25 30Z"/>
<path d="M28.75 30C28.06 30 27.5 29.44 27.5 28.75V1.25C27.5 0.56 28.06 0 28.75 0C29.44 0 30 0.56 30 1.25V28.75C30 29.44 29.44 30 28.75 30Z"/>
<path d="M9.6875 16.25V17.1875C9.6875 17.705 9.2675 18.125 8.75 18.125C8.2325 18.125 7.8125 17.705 7.8125 17.1875V16.25H5.625C5.28 16.25 5 16.53 5 16.875V21.875C5 22.22 5.28 22.5 5.625 22.5H11.875C12.22 22.5 12.5 22.22 12.5 21.875V16.875C12.5 16.53 12.22 16.25 11.875 16.25H9.6875Z"/>
<path d="M20.3125 15V15.9375C20.3125 16.455 19.8925 16.875 19.375 16.875C18.8575 16.875 18.4375 16.455 18.4375 15.9375V15H15.625C15.28 15 15 15.28 15 15.625V21.875C15 22.22 15.28 22.5 15.625 22.5H23.125C23.47 22.5 23.75 22.22 23.75 21.875V15.625C23.75 15.28 23.47 15 23.125 15H20.3125Z"/>
<path d="M12.1875 2.5V3.4375C12.1875 3.955 11.7675 4.375 11.25 4.375C10.7325 4.375 10.3125 3.955 10.3125 3.4375V2.5H6.875C6.53 2.5 6.25 2.78 6.25 3.125V8.125C6.25 8.47 6.53 8.75 6.875 8.75H15.625C15.97 8.75 16.25 8.47 16.25 8.125V3.125C16.25 2.78 15.97 2.5 15.625 2.5H12.1875Z"/>
</svg>
