<svg xmlns="http://www.w3.org/2000/svg" viewBox="0 0 26 26">
<path d="M24.7 14.3C23.982 14.3 23.4 14.882 23.4 15.6V19.5C23.4 21.6539 21.6539 23.4 19.5 23.4H6.5C4.34609 23.4 2.6 21.6539 2.6 19.5V6.5C2.6 4.34609 4.34609 2.6 6.5 2.6H13C13.718 2.6 14.3 2.01797 14.3 1.3C14.3 0.58203 13.718 0 13 0H6.5C2.91193 0.00429795 0.00429795 2.91193 0 6.5V19.5C0.00429795 23.0881 2.91193 25.9957 6.5 26H19.5C23.0881 25.9957 25.9957 23.0881 26 19.5V15.6C26 14.882 25.418 14.3 24.7 14.3Z"/>
<path d="M6.51293 14.4847C6.59373 15.0474 7.03077 15.4923 7.59193 15.5832C7.66067 15.5945 7.73025 15.6002 7.79993 15.6001C8.29266 15.6003 8.74318 15.3219 8.96343 14.8812C10.5767 11.6533 14.8693 11.4596 16.8999 11.5805V14.3001C16.9 14.8258 17.2168 15.2997 17.7025 15.5008C18.1882 15.702 18.7472 15.5908 19.119 15.2192L25.619 8.71916C25.8806 8.45776 26.0184 8.09735 25.9981 7.72814C25.9777 7.35892 25.8011 7.01584 25.5124 6.78476L19.0124 1.58476C18.6222 1.27232 18.0874 1.21132 17.6368 1.42787C17.1862 1.64442 16.8997 2.10015 16.8999 2.60006V5.09346C13.2599 4.92316 10.4779 5.78896 8.65663 7.66616C7.00317 9.52973 6.22332 12.0102 6.51293 14.4847Z"/>
</svg>
