<svg viewBox="0 0 18 21" xmlns="http://www.w3.org/2000/svg">
<path d="M8.95252 0.510986C6.09536 0.510986 3.75977 2.84658 3.75977 5.70374C3.75977 8.5609 6.09536 10.8965 8.95252 10.8965C11.8097 10.8965 14.1453 8.5609 14.1453 5.70374C14.1453 2.84658 11.8097 0.510986 8.95252 0.510986Z"/>
<path d="M17.8642 15.0461C17.7281 14.706 17.5467 14.3885 17.3426 14.0937C16.2995 12.5518 14.6896 11.5314 12.8755 11.2819C12.6488 11.2593 12.3994 11.3046 12.2179 11.4407C11.2656 12.1436 10.1318 12.5064 8.95262 12.5064C7.77345 12.5064 6.63968 12.1436 5.68729 11.4407C5.50587 11.3046 5.25644 11.2366 5.0297 11.2819C3.21564 11.5314 1.583 12.5518 0.562599 14.0937C0.358519 14.3885 0.177095 14.7287 0.041071 15.0461C-0.0269412 15.1822 -0.00428494 15.3409 0.0637272 15.477C0.245151 15.7944 0.471887 16.1119 0.675967 16.384C0.993415 16.8149 1.33356 17.2003 1.71907 17.5631C2.03651 17.8806 2.39932 18.1754 2.76216 18.4702C4.55353 19.8081 6.70774 20.511 8.92996 20.511C11.1522 20.511 13.3064 19.808 15.0978 18.4702C15.4606 18.1981 15.8234 17.8806 16.1409 17.5631C16.5037 17.2003 16.8665 16.8148 17.184 16.384C17.4107 16.0892 17.6148 15.7944 17.7962 15.477C17.9095 15.3409 17.9322 15.1822 17.8642 15.0461Z"/>
</svg>
